<svg width="1200" height="560" viewBox="0 0 1200 560" fill="none" xmlns="http://www.w3.org/2000/svg" role="img" aria-labelledby="title desc">
  <title id="title">Agent Orchestration 中文流程图</title>
  <desc id="desc">一个清晰的四步流程：用户请求、协调者、角色代理和最终交付，并由回调、任务状态和心跳监控支撑。</desc>
  <rect width="1200" height="560" rx="36" fill="#0B1220"/>
  <rect x="44" y="44" width="1112" height="472" rx="28" fill="#111827" stroke="#334155" stroke-width="2"/>

  <defs>
    <marker id="arrow" markerWidth="12" markerHeight="12" refX="10" refY="6" orient="auto" markerUnits="strokeWidth">
      <path d="M2 2L10 6L2 10" fill="#38BDF8"/>
    </marker>
    <style>
      .label { font-family: ui-sans-serif, system-ui, -apple-system, BlinkMacSystemFont, "Segoe UI", "PingFang SC", "Hiragino Sans GB", "Microsoft YaHei", sans-serif; }
      .eyebrow { fill: #38BDF8; font-size: 15px; font-weight: 700; letter-spacing: .08em; }
      .headline { fill: #F8FAFC; font-size: 34px; font-weight: 800; }
      .subhead { fill: #CBD5E1; font-size: 18px; }
      .step { fill: #182235; stroke: #475569; stroke-width: 2; }
      .stepHot { fill: #0EA5E9; stroke: #BAE6FD; stroke-width: 3; }
      .support { fill: #0F172A; stroke: #334155; stroke-width: 2; }
      .title { fill: #F8FAFC; font-size: 23px; font-weight: 800; }
      .titleDark { fill: #082F49; font-size: 24px; font-weight: 800; }
      .body { fill: #CBD5E1; font-size: 16px; }
      .bodyDark { fill: #082F49; font-size: 16px; font-weight: 650; }
      .pill { fill: #123044; stroke: #38BDF8; stroke-width: 1.5; }
      .pillText { fill: #BAE6FD; font-size: 15px; font-weight: 700; }
      .line { stroke: #38BDF8; stroke-width: 3; marker-end: url(#arrow); }
    </style>
  </defs>

  <text class="label eyebrow" x="76" y="92">CODEX 多代理工作流</text>
  <text class="label headline" x="76" y="134">一个协调者，多个专注代理。</text>
  <text class="label subhead" x="76" y="166">把复杂 Codex 任务拆给不同角色，收集证据，最终交付经过检查的结果。</text>

  <rect class="step" x="82" y="238" width="208" height="118" rx="22"/>
  <circle cx="124" cy="277" r="18" fill="#1E293B" stroke="#38BDF8" stroke-width="2"/>
  <text class="label" x="119" y="283" fill="#BAE6FD" font-size="18" font-weight="800">1</text>
  <text class="label title" x="154" y="283">请求</text>
  <text class="label body" x="112" y="318">目标、仓库、</text>
  <text class="label body" x="112" y="342">范围、约束</text>

  <rect class="stepHot" x="360" y="218" width="230" height="158" rx="26"/>
  <circle cx="404" cy="263" r="20" fill="#082F49"/>
  <text class="label" x="398" y="270" fill="#BAE6FD" font-size="18" font-weight="800">2</text>
  <text class="label titleDark" x="438" y="271">协调者</text>
  <text class="label bodyDark" x="396" y="309">选择工作流</text>
  <text class="label bodyDark" x="396" y="333">分发角色任务</text>
  <text class="label bodyDark" x="396" y="357">检查最终证据</text>

  <rect class="step" x="660" y="218" width="250" height="158" rx="26"/>
  <circle cx="704" cy="263" r="20" fill="#1E293B" stroke="#38BDF8" stroke-width="2"/>
  <text class="label" x="698" y="270" fill="#BAE6FD" font-size="18" font-weight="800">3</text>
  <text class="label title" x="738" y="271">角色代理</text>
  <rect class="pill" x="700" y="300" width="78" height="30" rx="15"/>
  <text class="label pillText" x="724" y="321">规划</text>
  <rect class="pill" x="790" y="300" width="78" height="30" rx="15"/>
  <text class="label pillText" x="814" y="321">编码</text>
  <rect class="pill" x="700" y="340" width="78" height="30" rx="15"/>
  <text class="label pillText" x="724" y="361">审查</text>
  <rect class="pill" x="790" y="340" width="78" height="30" rx="15"/>
  <text class="label pillText" x="811" y="361">测试</text>

  <rect class="step" x="980" y="238" width="138" height="118" rx="22"/>
  <circle cx="1019" cy="277" r="18" fill="#1E293B" stroke="#38BDF8" stroke-width="2"/>
  <text class="label" x="1014" y="283" fill="#BAE6FD" font-size="18" font-weight="800">4</text>
  <text class="label title" x="1040" y="283">交付</text>
  <text class="label body" x="1009" y="318">验证后</text>
  <text class="label body" x="1009" y="342">汇总输出</text>

  <path class="line" d="M290 297H347"/>
  <path class="line" d="M590 297H647"/>
  <path class="line" d="M910 297H967"/>

  <rect class="support" x="136" y="420" width="258" height="58" rx="18"/>
  <text class="label title" x="166" y="456" font-size="18">回调</text>
  <text class="label body" x="232" y="456">角色带证据回复</text>

  <rect class="support" x="472" y="420" width="258" height="58" rx="18"/>
  <text class="label title" x="502" y="456" font-size="18">任务状态</text>
  <text class="label body" x="626" y="456">完成 / 阻塞 / 风险</text>

  <rect class="support" x="808" y="420" width="258" height="58" rx="18"/>
  <text class="label title" x="838" y="456" font-size="18">心跳</text>
  <text class="label body" x="904" y="456">轮询长时间任务</text>
</svg>
